# Blender 3.3.0
# www.blender.org
mtllib untitled.mtl
o Plane
v -9.413104 6.759688 9.172381
v 10.795349 6.759688 9.172381
v -9.413104 6.759688 -9.172381
v 10.795349 6.759688 -9.172381
v -7.059093 0.000000 9.172381
v 6.452932 0.000000 9.172381
v 6.452932 0.000000 -9.172381
v -7.059093 0.000000 -9.172381
vn -0.8414 0.5405 -0.0000
vn 0.9444 0.3289 -0.0000
vn -0.0000 1.0000 -0.0000
vt 0.000000 0.000000
vt 1.000000 0.000000
vt 0.000000 1.000000
vt 1.000000 1.000000
vt 0.347428 0.000000
vt 0.680762 0.000000
vt 0.680762 1.000000
vt 0.347428 1.000000
s 0
f 6/6/1 2/2/1 4/4/1 7/7/1
f 1/1/2 5/5/2 8/8/2 3/3/2
f 5/5/3 6/6/3 7/7/3 8/8/3
